<svg height="800" width="800" xmlns="http://www.w3.org/2000/svg" viewBox="0 0 512.001 512.001" xml:space="preserve">
  <path style="fill:#a3dddc" d="M328.089 228.784c-6.84-7.89-70.373-41.549-92.537-47.828-2.036-.577-4.05.97-4.05 3.086v12.601c0 1.311.799 2.488 2.017 2.972 9.093 3.617 46.207 18.808 55.026 29.169h39.544z"/>
  <path style="opacity:.2;fill:#fff;enable-background:new" d="M243.991 183.857c2.023 12.703 13.023 22.412 26.295 22.412 5.036 0 9.744-1.399 13.761-3.828-14.292-7.357-29.203-14.397-40.056-18.584z"/>
  <path style="fill:#272f37" d="m160.764 230.611 8.636-29.231a11.283 11.283 0 0 1 22.104 3.197v24.386l-30.74 1.648z"/>
  <path style="fill:#de2a4e" d="M16.946 292.039a81.187 81.187 0 0 0 46.404 14.568h380.742c8.288 0 16.563-.667 24.744-1.994l27.398-4.443a9.323 9.323 0 0 0 7.83-9.202v-17.949a15.304 15.304 0 0 0-7.599-13.223l-15.43-8.993a184.73 184.73 0 0 0-93.014-25.127h-194.3c-4.989 0-9.951-.726-14.731-2.154l-27.863-8.326a81.866 81.866 0 0 0-49.08.692 54.53 54.53 0 0 1-17.077 2.743H46.254c-26.36 0-37.948 21.981-37.948 40.069l-.363 15.595a21.031 21.031 0 0 0 9.003 17.744z"/>
  <path style="fill:#ff496a" d="m281.74 234.421-27.632 1.733a5.816 5.816 0 0 1-6.163-5.368l-.721-9.596c-.299-3.989 3.424-7.082 7.291-6.055l27.865 7.4a4.49 4.49 0 0 1 3.326 4.005l.23 3.061a4.49 4.49 0 0 1-4.196 4.82z"/>
  <path style="opacity:.1;enable-background:new" d="M95.869 240.613c-27.095 0-49.059 21.965-49.059 49.06a48.96 48.96 0 0 0 2.585 15.711 81.118 81.118 0 0 0 13.955 1.223h78.576a48.942 48.942 0 0 0 3.003-16.934c0-27.095-21.965-49.06-49.06-49.06z"/>
  <circle style="fill:#272f37" cx="95.873" cy="289.671" r="41.502"/>
  <circle style="fill:#c7c9c9" cx="95.873" cy="289.671" r="18.639"/>
  <path style="opacity:.1;enable-background:new" d="m366.212 249.876-13.154 12.168a10.303 10.303 0 0 1-8.39 2.644L231.08 249.17c-.897-.123-.821-1.443.085-1.462l133.101-2.662c2.559-.051 3.826 3.091 1.946 4.83z"/>
  <path style="opacity:.2;enable-background:new" d="m482.227 285.415-13.39 19.199 27.398-4.443a9.313 9.313 0 0 0 6.476-4.372l-12.359-11.288a5.436 5.436 0 0 0-8.125.904z"/>
  <path style="fill:#a3dddc" d="M481.037 250.804a184.739 184.739 0 0 0-39.551-17.212l18.826 25.858a10.012 10.012 0 0 0 11.663 3.463l18.04-6.877-8.978-5.232z"/>
  <path style="opacity:.2;fill:#fff;enable-background:new" d="M408.258 226.811c11.47 12.295 27.805 19.993 45.946 19.993 5.422 0 10.684-.687 15.703-1.978a184.67 184.67 0 0 0-61.649-18.015zM496.466 259.796l-12.144-7.078a18.863 18.863 0 0 0-.435 3.997c0 10.396 8.427 18.824 18.824 18.824.457 0 .905-.036 1.353-.068v-2.451a15.305 15.305 0 0 0-7.598-13.224zM151.128 215.197a81.854 81.854 0 0 0-35.886-2.462c6.341 9.663 17.266 16.05 29.687 16.05 8.816 0 16.875-3.221 23.081-8.542l-16.882-5.046z"/>
  <path style="opacity:.1;enable-background:new" d="M406.207 240.613c-27.095 0-49.06 21.965-49.06 49.06a48.942 48.942 0 0 0 3.003 16.934h83.943c2.753 0 5.505-.08 8.252-.228a48.958 48.958 0 0 0 2.922-16.707c0-27.094-21.965-49.059-49.06-49.059z"/>
  <circle style="fill:#272f37" cx="406.21" cy="289.671" r="41.502"/>
  <circle style="fill:#c7c9c9" cx="406.21" cy="289.671" r="18.639"/>
  <path style="opacity:.1;enable-background:new" d="M299.343 295.258H177.756a7.935 7.935 0 0 1-7.936-7.936 7.935 7.935 0 0 1 7.936-7.936h121.587a7.936 7.936 0 1 1 0 15.872z"/>
  <path d="m500.462 252.939-15.43-8.993a192.864 192.864 0 0 0-97.011-26.206h-61.122c-17.991-12.235-68.389-38.53-89.184-44.421a11.012 11.012 0 0 0-9.725 1.828 11.21 11.21 0 0 0-4.425 8.893v12.601c0 4.588 2.756 8.649 7.02 10.347a480.4 480.4 0 0 1 11.926 4.943 13.742 13.742 0 0 0-2.876 5.81h-40.193v-13.164c0-9.964-7.782-18.381-17.717-19.161-9.007-.706-17.38 5.065-19.933 13.714l-2.978 10.079-5.411-1.617c-17.691-5.287-36.309-5.023-53.839.759a46.488 46.488 0 0 1-14.591 2.344H46.255c-18.264 0-29.148 8.83-35.061 16.236C4.334 235.524.392 247.062.37 258.604l-.362 15.507a28.898 28.898 0 0 0 12.403 24.44 89.101 89.101 0 0 0 40.385 15.342c8.488 15.037 24.609 25.218 43.073 25.218 18.196 0 34.116-9.889 42.699-24.567h224.941c8.583 14.678 24.503 24.567 42.698 24.567 18.23 0 34.174-9.925 42.746-24.649a162.944 162.944 0 0 0 21.154-2.015l27.399-4.442a17.19 17.19 0 0 0 14.495-17.036V273.02c-.001-8.239-4.422-15.933-11.539-20.081zm-261.024-59.498v-2.825c14.177 5.273 37.81 16.848 56.516 27.125h-6.312a12.387 12.387 0 0 0-5.224-2.875l-1.257-.333c-13.404-8.393-34.195-17.217-43.723-21.092zm29.79 33.813-13.524.849-.34-4.53 13.864 3.681zm-92.216-23.627a3.35 3.35 0 0 1 3.469-2.386 3.363 3.363 0 0 1 3.086 3.337v11.941a43.093 43.093 0 0 1-2.305-.599l-7.243-2.164 2.993-10.129zm-81.143 119.61c-18.507 0-33.564-15.057-33.564-33.565 0-18.507 15.057-33.564 33.564-33.564 18.508 0 33.565 15.057 33.565 33.564 0 18.508-15.056 33.565-33.565 33.565zm310.338 0c-18.507 0-33.564-15.057-33.564-33.565 0-18.507 15.057-33.564 33.564-33.564 18.508 0 33.565 15.057 33.565 33.564 0 18.508-15.057 33.565-33.565 33.565zm89.921-32.268a1.38 1.38 0 0 1-1.164 1.367l-27.398 4.442c-4.193.68-8.433 1.162-12.684 1.476.491-2.789.761-5.654.761-8.582 0-27.26-22.178-49.437-49.438-49.437s-49.437 22.178-49.437 49.437c0 3.074.296 6.078.836 8.998H144.472c.54-2.92.836-5.924.836-8.998 0-27.26-22.178-49.437-49.438-49.437s-49.437 22.178-49.437 49.437c0 2.418.183 4.794.52 7.121a73.176 73.176 0 0 1-25.47-11.267 13.057 13.057 0 0 1-5.605-11.047l.364-15.595.002-.185c0-11.113 6.273-32.132 30.012-32.132H84.97c6.658 0 13.24-1.057 19.562-3.143 14.433-4.761 29.76-4.978 44.324-.624l27.862 8.326a59.342 59.342 0 0 0 17.004 2.487h46.677c1.489 6.062 6.993 10.489 13.345 10.489.286 0 .572-.008.861-.026l27.632-1.734a12.334 12.334 0 0 0 8.591-4.24 12.377 12.377 0 0 0 2.499-4.488h94.694c31.242 0 62.025 8.315 89.019 24.048l15.43 8.993a7.39 7.39 0 0 1 3.658 6.366v17.949zM180.42 235.905h-21.19a7.935 7.935 0 0 0-7.936 7.936 7.935 7.935 0 0 0 7.936 7.936h21.19a7.937 7.937 0 0 0 0-15.872zm-84.551 27.192c-14.654 0-26.576 11.922-26.576 26.576s11.923 26.576 26.576 26.576 26.576-11.922 26.576-26.576c0-14.655-11.922-26.576-26.576-26.576zm0 37.278c-5.902 0-10.703-4.801-10.703-10.703 0-5.902 4.801-10.703 10.703-10.703 5.902 0 10.703 4.801 10.703 10.703 0 5.902-4.801 10.703-10.703 10.703zm310.338-37.278c-14.654 0-26.575 11.922-26.575 26.576s11.922 26.576 26.575 26.576c14.654 0 26.576-11.922 26.576-26.576 0-14.655-11.922-26.576-26.576-26.576zm0 37.278c-5.901 0-10.702-4.801-10.702-10.703 0-5.902 4.801-10.703 10.702-10.703 5.902 0 10.703 4.801 10.703 10.703 0 5.902-4.801 10.703-10.703 10.703z"/>
</svg>
